<svg width="374.92288489897226" height="76.05141006735182" viewBox="0 0 374.92288489897226 76.05141006735182" class="css-1j8o68f">
   <defs id="SvgjsDefs1174"></defs>
   <g id="SvgjsG1175" featurekey="nRdZyp-0" transform="matrix(1.1883032823023723,0,0,1.1883032823023723,0,-19.012852516837956)" fill="#e23e57">
      <g xmlns="http://www.w3.org/2000/svg">
         <path d="M46.508,49.757C46.342,49.641,46,49.732,46,49.903v8.193c0,0.172,0.332,0.262,0.498,0.147l5.943-4.097   c0.113-0.079,0.094-0.215-0.019-0.293L46.508,49.757z"></path>
         <path d="M82.207,41.757c0.016-0.369,0.028-0.74,0.028-1.113C82.235,27.033,71.188,16,57.56,16c-9.869,0-18.381,5.788-22.327,14.149   c-2.192-1.562-4.9-2.488-7.832-2.488c-7.295,0-13.208,5.714-13.208,12.762c0,1.046,0.133,2.063,0.379,3.035   C6.251,45.229,0,52.766,0,61.781C0,72.109,8.208,80,18.333,80h60.123C88.145,80,96,71.715,96,60.901   C96,51.522,90.093,43.675,82.207,41.757z M64,60.33c0,2.027-1.643,3.67-3.67,3.67H37.67C35.643,64,34,62.357,34,60.33V47.67   c0-2.027,1.643-3.67,3.67-3.67H60.33c2.027,0,3.67,1.643,3.67,3.67V60.33z"></path>
      </g>
   </g>
   <g id="SvgjsG1176" featurekey="Q4qmbg-0" transform="matrix(4.27400571179995,0,0,4.27400571179995,135.40983454992653,-16.42154934417918)" fill="#e23e57">
      <path d="M3.9 10.12 l0 9.88 l-2.96 0 l0 -9.88 l2.96 0 z M3.98 7.279999999999999 c0 0.84 -0.68 1.5 -1.58 1.5 c-0.86 0 -1.56 -0.66 -1.56 -1.5 c0 -0.82 0.7 -1.46 1.56 -1.46 c0.9 0 1.58 0.64 1.58 1.46 z M13.723895833333332 13.42 l0 2.52 l-7.8 0 l0 -2.52 l7.8 0 z M19.227791666666665 15.8 c0 0.72 -0.02 1.92 1.08 1.92 c0.54 0 0.88 -0.22 1.26 -0.5 l0 2.44 c-0.46 0.26 -1.02 0.5 -1.62 0.5 c-2.54 0 -3.68 -1.08 -3.68 -4.36 l0 -3.24 l-1.1 0 l0 -2.44 l1.1 0 l0 -2.84 l2.96 0 l0 2.84 l2.34 0 l0 2.44 l-2.34 0 l0 3.24 z M23.4516875 15.76 l0 -5.64 l2.96 0 l0 5.64 c0 1.52 0.42 2.16 1.56 2.16 c1.2 0 1.9 -0.64 1.9 -2.16 l0 -5.64 l2.96 0 l0 9.88 l-2.96 0 l0 -0.9 c-0.56 0.7 -1.78 1.06 -2.64 1.06 c-2.78 0 -3.78 -1.32 -3.78 -4.4 z M39.875583333333324 9.98 c2.9 0 4.82 2.18 4.82 5.1 s-2.12 5.08 -5.02 5.08 c-0.64 0 -1.72 -0.36 -2.04 -0.82 l0 0.66 l-2.96 0 l0 -14.52 l2.96 0 l0 5.34 c0.34 -0.5 1.62 -0.84 2.24 -0.84 z M39.475583333333326 17.92 c1.24 0 2.26 -1.28 2.26 -2.84 c0 -1.58 -1.02 -2.86 -2.26 -2.86 c-1.36 0 -2.24 1.54 -2.24 2.86 s0.9 2.84 2.24 2.84 z M56.03947916666666 15.08 l0 0.66 l-7.04 0 c0 1.16 1.18 1.98 2.16 1.98 c0.96 0 1.84 -0.38 2.3 -1.22 l1.98 1.82 c-0.8 1.08 -2.02 1.84 -4.28 1.84 c-3.24 0 -5.22 -2.16 -5.22 -5.08 s1.92 -5.1 5.04 -5.1 s5.06 2.14 5.06 5.1 z M49.05947916666666 13.86 l3.88 0 c-0.16 -0.94 -0.84 -1.44 -1.96 -1.44 c-1.08 0 -1.74 0.58 -1.92 1.44 z"></path>
   </g>
</svg>